<svg xmlns="http://www.w3.org/2000/svg" width="24" height="24">
    <path d="M12.983 24c-1.456-.821-2.21-1.21-3.102-1.74 1.975.228 4.84.562 6.814.796-1.047.547-2.52.82-3.712.944zm5.656-2.046c-2.786-.534-5.657-1.081-8.43-1.672 4.05-.842 8.195-1.639 12.256-2.428-.37 1.057-2.52 3.473-3.75 4.111zm-8.766-3.618c4.644-2.614 9.598-5.386 14.042-7.888.245 2.22-.037 4.405-.888 6.294-4.3.53-8.854 1.074-13.154 1.594zm-.847-1.843c3.884-4.244 7.8-8.46 11.702-12.69 1.555 1.605 2.584 3.679 3.04 5.859-4.884 2.327-9.826 4.562-14.742 6.831zm-1.428-1.41C9.656 10.2 12.443 4.527 14.416.248a11.52 11.52 0 0 1 5.839 3.084c-4.154 3.9-8.481 7.871-12.657 11.75zm-5.788-.934C1.187 13.089.602 12.006 0 10.934c.112-1.306.438-2.602.988-3.792.283 2.335.567 4.67.822 7.007zm3.978.02C6.304 9.744 6.816 5.314 7.366.892c1.631-.659 3.598-1.094 6.3-.794C12.33 2.485 7.22 11.625 5.789 14.17zm-1.963-.302A1261.57 1261.57 0 0 1 2.069 5.17c1.099-1.535 2.518-2.847 4.187-3.738-.72 3.83-1.681 8.612-2.431 12.435z" fill="#aaa"/>
</svg>